<?xml version="1.0" standalone="no"?>
<!DOCTYPE svg PUBLIC "-//W3C//DTD SVG 20010904//EN"
 "http://www.w3.org/TR/2001/REC-SVG-20010904/DTD/svg10.dtd">
<svg version="1.0" xmlns="http://www.w3.org/2000/svg"
 width="585.000000pt" height="600.000000pt" viewBox="0 0 585.000000 600.000000"
 preserveAspectRatio="xMidYMid meet">

<g transform="translate(0.000000,600.000000) scale(0.100000,-0.100000)"
fill="#FFA500" stroke="none">
<path d="M0 3000 l0 -3000 2925 0 2925 0 0 3000 0 3000 -2925 0 -2925 0 0
-3000z m2713 2526 l37 -15 0 -130 c0 -118 -2 -131 -19 -140 -13 -7 -356 -11
-1003 -11 -788 -1 -986 -4 -1000 -14 -17 -12 -18 -77 -20 -1004 -3 -887 -5
-993 -19 -1007 -12 -13 -40 -16 -139 -16 -77 0 -127 4 -134 11 -8 8 -11 326
-11 1158 0 985 2 1150 14 1163 13 14 141 16 1136 18 987 2 1126 1 1158 -13z
m2791 -38 c6 -13 21 -27 33 -33 l22 -9 -2 -1121 -2 -1120 -190 0 -190 0 -5
918 c-5 895 -6 919 -24 933 -11 8 -23 14 -28 14 -4 0 -8 19 -8 42 0 24 -7 49
-17 60 -15 17 -58 18 -960 18 l-943 0 -1 140 c-2 172 -2 168 0 178 0 4 519 6
1153 5 l1151 -3 11 -22z m-3397 -887 c23 -22 45 -30 96 -33 22 -1 48 -11 61
-23 12 -11 39 -28 59 -37 20 -10 37 -22 37 -28 0 -5 5 -10 10 -10 14 0 90 -75
90 -88 0 -6 11 -23 24 -39 14 -17 25 -46 28 -76 3 -26 14 -57 24 -68 17 -19
19 -39 20 -173 1 -162 12 -221 45 -231 10 -4 19 -11 19 -16 0 -9 31 -46 95
-113 16 -17 45 -53 63 -80 19 -27 46 -62 61 -78 14 -15 40 -44 56 -64 17 -19
49 -56 73 -81 23 -25 42 -49 42 -55 0 -5 4 -7 8 -4 4 2 17 -9 27 -25 11 -16
29 -29 39 -29 10 0 58 38 105 85 47 47 146 144 219 216 72 71 132 134 132 138
0 5 18 21 41 37 22 15 54 47 70 70 16 24 42 51 57 60 15 9 48 41 74 70 35 40
48 64 53 98 4 25 10 46 14 46 8 0 36 63 45 102 3 15 13 33 21 42 8 8 15 20 15
26 0 6 5 8 10 5 6 -3 10 -1 10 5 0 16 68 72 111 92 22 9 39 21 39 27 0 5 14
12 30 16 17 4 40 20 52 36 12 16 29 29 37 29 9 0 34 14 55 30 32 24 49 30 92
30 46 0 55 -4 77 -30 14 -16 30 -30 36 -30 5 0 21 -12 35 -27 13 -16 41 -46
61 -68 32 -35 36 -45 32 -77 -3 -20 -17 -52 -31 -71 -14 -19 -26 -40 -26 -49
0 -8 -12 -30 -26 -49 -14 -19 -30 -44 -35 -56 -5 -13 -13 -23 -18 -23 -5 0
-19 -19 -30 -42 -52 -103 -68 -123 -127 -157 -32 -18 -84 -40 -114 -49 -30 -8
-62 -21 -71 -28 -8 -8 -29 -17 -46 -20 -32 -6 -73 -37 -73 -54 0 -6 -6 -10
-13 -10 -8 0 -20 -12 -27 -26 -20 -37 -40 -44 -78 -29 -35 15 -40 26 -17 45 8
7 15 18 15 25 0 7 14 25 30 38 40 34 42 86 4 116 -15 12 -33 21 -40 21 -8 0
-14 5 -14 12 0 6 -7 4 -18 -5 -10 -10 -21 -17 -25 -17 -3 0 -92 -85 -196 -190
-105 -104 -195 -190 -201 -190 -5 0 -10 -6 -10 -13 0 -13 -215 -227 -228 -227
-9 0 -32 -59 -32 -81 0 -36 26 -70 62 -81 l38 -11 240 241 c248 250 263 262
310 232 12 -8 11 -13 -8 -39 -12 -17 -22 -33 -22 -37 0 -3 -24 -29 -52 -56
-71 -66 -57 -52 -214 -207 -30 -29 -54 -57 -54 -61 0 -5 -8 -11 -18 -14 -11
-4 -25 -18 -32 -31 -7 -14 -19 -25 -27 -25 -7 0 -13 -4 -13 -10 0 -5 -15 -24
-34 -41 l-33 -32 35 -46 c19 -25 37 -48 41 -51 4 -3 18 -20 30 -39 24 -33 41
-52 117 -135 23 -24 51 -57 63 -74 31 -44 62 -80 94 -110 15 -14 27 -30 27
-35 0 -5 15 -24 33 -42 17 -17 39 -41 47 -52 74 -100 135 -161 167 -169 13 -4
23 -11 23 -16 0 -6 6 -5 15 2 25 20 160 8 188 -17 12 -11 40 -24 62 -28 22 -3
49 -15 60 -25 76 -70 99 -90 106 -90 4 0 11 -10 14 -21 4 -12 20 -41 35 -65
18 -29 29 -63 34 -105 3 -34 11 -68 17 -75 6 -8 9 -24 6 -36 -3 -13 -9 -45
-12 -73 -11 -95 -16 -114 -33 -127 -10 -7 -22 -31 -27 -53 -6 -23 -19 -44 -30
-50 -11 -5 -46 -35 -78 -66 -45 -44 -66 -58 -99 -63 -23 -4 -47 -14 -54 -24
-18 -25 -232 -25 -260 -1 -11 9 -42 22 -70 28 -30 7 -62 23 -75 37 -12 13 -29
24 -36 24 -8 0 -19 12 -26 28 -7 15 -19 28 -26 30 -20 4 -39 31 -47 67 -4 17
-17 40 -29 53 -27 27 -36 81 -22 135 6 25 6 46 0 60 -5 12 -7 34 -3 48 4 14 3
54 -2 90 -8 52 -15 70 -41 94 -18 17 -54 57 -82 90 -27 32 -62 72 -77 88 -16
17 -28 35 -28 42 0 6 -15 25 -32 41 -36 33 -114 126 -112 134 1 3 -11 13 -27
22 -15 9 -30 26 -34 37 -3 12 -10 21 -15 21 -5 0 -18 15 -29 34 -28 45 -83 55
-106 19 -12 -17 -13 -28 -5 -42 15 -28 12 -96 -5 -138 -10 -24 -119 -140 -310
-331 -162 -162 -295 -299 -295 -303 0 -5 -3 -9 -8 -9 -8 0 -161 -149 -207
-202 -16 -19 -41 -41 -55 -48 -13 -7 -32 -23 -42 -35 -13 -17 -33 -24 -80 -30
-35 -5 -67 -8 -73 -7 -121 9 -116 6 -229 117 -58 57 -106 107 -106 112 0 5
-11 16 -25 23 -14 7 -25 17 -25 21 0 5 -12 19 -27 33 -24 23 -41 57 -64 133
-8 26 -6 41 11 77 11 25 20 53 20 64 0 10 13 32 30 48 16 16 30 33 30 37 0 8
31 40 120 124 25 24 83 81 130 129 94 95 137 134 150 134 5 0 19 -10 33 -22
l24 -21 -214 -216 c-197 -199 -215 -220 -229 -270 -29 -96 -12 -131 136 -278
164 -163 174 -169 261 -161 37 4 57 12 73 29 13 13 55 53 96 89 40 36 78 71
84 78 42 50 106 112 115 112 6 0 11 4 11 9 0 5 29 39 65 75 36 36 65 69 65 75
0 5 11 12 25 15 14 4 25 11 25 16 0 7 185 201 252 265 14 14 104 104 134 135
22 23 24 33 24 118 0 89 1 93 30 120 43 42 39 68 -21 127 -28 27 -57 61 -65
76 -7 15 -23 30 -34 34 -11 3 -21 11 -21 16 -1 5 -2 14 -3 20 0 7 -10 15 -21
20 -41 16 -74 9 -110 -22 -34 -31 -40 -32 -131 -34 l-95 -2 -58 -59 c-31 -32
-64 -64 -72 -70 -8 -7 -44 -43 -80 -80 -92 -96 -115 -114 -147 -114 -24 0 -28
4 -30 30 -2 26 17 49 165 195 92 91 177 168 188 171 11 4 28 13 38 22 15 13
23 14 51 4 46 -17 64 -15 126 17 41 21 54 32 52 46 -2 11 -31 51 -64 90 -33
38 -72 85 -86 103 -15 18 -39 44 -54 59 -16 14 -28 32 -28 39 0 7 -13 21 -30
31 -16 9 -30 23 -30 30 0 7 -25 38 -55 69 -30 31 -64 71 -75 89 -25 40 -65 52
-215 60 -89 5 -112 10 -125 25 -9 10 -28 22 -42 25 -14 4 -35 17 -46 30 -11
13 -36 31 -56 40 -19 9 -38 25 -41 34 -3 10 -16 24 -30 31 -13 7 -29 26 -36
43 -7 16 -23 40 -35 52 -13 13 -26 35 -30 49 -3 15 -12 30 -20 34 -15 8 -44
106 -44 148 0 14 7 39 17 54 l16 28 47 -29 c26 -16 54 -29 62 -29 9 0 26 -11
39 -24 13 -13 41 -31 62 -40 22 -9 48 -27 59 -41 40 -51 149 -19 181 55 9 21
28 50 42 64 21 21 25 34 25 83 0 56 -2 59 -46 98 -25 22 -60 55 -77 73 -18 17
-36 32 -42 32 -6 0 -19 11 -29 25 -10 14 -25 25 -32 25 -21 0 -74 57 -74 79 0
40 11 51 51 51 25 0 47 8 64 23 36 31 171 36 202 8z m-1418 -1832 l21 -20 0
-974 c0 -767 2 -979 12 -995 7 -11 24 -20 38 -21 14 0 461 -1 993 -2 946 -2
969 -2 983 -21 19 -26 20 -234 1 -259 -11 -17 -85 -18 -1161 -18 -1029 0
-1149 2 -1160 16 -8 11 -11 315 -11 1148 0 974 2 1135 14 1148 12 12 40 16
132 16 103 1 120 -1 138 -18z m4808 -5 c11 -18 14 -197 14 -1143 0 -777 -4
-1127 -11 -1141 -9 -16 -21 -20 -68 -20 -31 0 -548 -1 -1149 -2 l-1092 -3 -15
27 c-23 38 -22 195 1 244 l18 36 980 -2 c539 -2 987 -2 996 -1 38 3 39 22 39
1016 0 727 3 971 12 990 l12 27 124 -4 c114 -3 126 -5 139 -24z m-2989 -118
c8 -30 4 -35 -100 -138 -59 -60 -113 -108 -118 -108 -6 0 -10 -4 -10 -9 0 -16
-465 -478 -488 -485 -12 -4 -22 -12 -22 -17 0 -5 -7 -9 -15 -9 -8 0 -17 14
-21 35 -6 35 -3 39 85 127 50 49 91 93 92 97 0 3 20 24 45 46 65 58 123 115
117 115 -2 0 62 65 144 144 81 80 162 159 179 175 17 17 35 31 40 31 5 0 16 9
23 19 19 26 39 16 49 -23z m109 -108 c31 -40 27 -47 -141 -211 -90 -89 -173
-169 -183 -178 -10 -9 -25 -26 -33 -37 -8 -12 -20 -22 -27 -22 -7 0 -13 -5
-13 -11 0 -14 -97 -109 -111 -109 -5 0 -9 -5 -9 -11 0 -6 -33 -43 -73 -82
-139 -137 -173 -154 -171 -87 1 34 31 79 78 119 49 41 156 150 156 159 0 5 12
18 28 27 15 10 86 79 159 154 72 75 137 141 143 146 6 6 36 35 66 65 51 49 99
87 115 89 4 1 11 -5 16 -11z m146 -152 c7 -16 -135 -170 -339 -367 -54 -53
-108 -107 -120 -120 -11 -13 -32 -33 -45 -44 -13 -11 -40 -38 -58 -60 -19 -22
-52 -52 -73 -67 -21 -16 -38 -33 -38 -38 0 -17 -36 -47 -65 -54 -69 -17 -67
53 3 118 64 57 602 595 602 601 0 11 39 43 59 50 12 3 21 11 21 16 0 12 47
-18 53 -35z"/>
<path d="M1925 4529 c-16 -44 -10 -64 23 -78 17 -8 32 -19 32 -25 0 -6 12 -17
28 -23 15 -7 41 -25 57 -40 17 -16 41 -34 55 -41 25 -13 60 -74 60 -104 0 -9
-7 -29 -15 -44 -8 -16 -15 -37 -15 -47 0 -9 -16 -40 -35 -68 -19 -28 -35 -57
-35 -65 0 -7 -8 -19 -18 -26 -11 -7 -24 -22 -30 -33 -22 -42 -157 -67 -178
-34 -3 5 -13 9 -23 9 -10 0 -28 11 -41 25 -13 14 -29 25 -36 25 -7 0 -21 11
-32 25 -15 19 -29 25 -61 25 -42 0 -58 -21 -26 -34 8 -3 20 -25 26 -50 9 -35
29 -63 88 -125 42 -45 82 -81 88 -81 6 0 14 -8 17 -18 4 -11 29 -26 62 -37 31
-11 63 -26 72 -34 22 -22 163 -22 188 0 11 10 38 23 60 31 23 7 54 28 68 45
15 18 32 32 38 30 6 -1 22 14 35 33 13 19 35 48 48 64 17 19 25 40 25 66 0 23
9 51 25 74 34 50 34 128 1 194 -13 26 -27 67 -31 92 -5 27 -18 55 -34 71 -14
15 -46 48 -70 73 -24 25 -50 46 -56 46 -7 0 -24 12 -39 26 -29 29 -82 45 -166
48 -30 2 -76 6 -102 11 -37 5 -49 4 -53 -6z"/>
<path d="M4293 4383 c-24 -13 -43 -29 -43 -34 0 -6 -4 -7 -10 -4 -5 3 -10 2
-10 -3 0 -6 -10 -12 -22 -16 -13 -3 -35 -16 -49 -30 -14 -13 -39 -27 -55 -31
-16 -4 -42 -22 -58 -40 -16 -18 -44 -49 -62 -69 -29 -31 -34 -44 -34 -84 0
-27 -5 -53 -11 -59 -15 -15 7 -92 29 -100 20 -8 52 -42 52 -56 0 -6 29 -8 78
-4 122 8 193 59 272 192 14 24 33 50 43 60 9 9 17 22 17 29 0 7 10 28 23 47
44 66 56 149 21 149 -8 0 -14 3 -14 8 0 4 -14 22 -31 40 -37 39 -75 41 -136 5z"/>
<path d="M2462 3788 c-7 -7 -12 -20 -12 -29 0 -10 -13 -26 -30 -36 -16 -9 -30
-23 -30 -31 0 -7 -16 -20 -37 -28 -71 -30 -93 -86 -48 -120 14 -10 25 -23 25
-29 0 -6 13 -18 29 -28 16 -9 32 -28 35 -41 3 -14 15 -27 26 -31 10 -3 22 -16
26 -28 4 -12 19 -34 35 -49 15 -15 36 -39 45 -53 9 -14 22 -25 29 -25 7 0 16
-11 19 -25 4 -14 18 -31 31 -37 16 -7 25 -19 25 -34 0 -15 9 -27 30 -36 17 -7
30 -21 30 -30 0 -10 14 -30 30 -45 17 -14 30 -32 30 -40 0 -7 5 -13 10 -13 6
0 10 -7 10 -15 0 -8 7 -15 15 -15 8 0 21 -16 29 -35 8 -19 21 -35 29 -35 8 0
22 -10 33 -22 10 -12 13 -18 5 -13 -10 6 -12 4 -7 -4 5 -7 19 -16 32 -21 13
-5 24 -17 24 -25 0 -22 24 -45 47 -45 14 0 19 -7 18 -27 0 -24 4 -28 27 -28
17 1 26 -4 26 -15 -1 -25 19 -63 51 -98 17 -18 31 -37 31 -43 0 -5 6 -9 14 -9
7 0 20 -14 28 -31 9 -17 26 -36 39 -43 13 -6 26 -21 29 -34 3 -12 16 -28 30
-35 14 -7 26 -18 26 -25 1 -7 2 -16 3 -22 0 -5 10 -10 22 -10 13 0 25 -11 35
-35 8 -19 20 -35 28 -35 8 0 16 -10 20 -23 3 -13 17 -29 31 -37 14 -7 25 -19
25 -26 0 -7 10 -21 23 -31 12 -10 30 -34 41 -52 21 -38 91 -111 106 -111 6 0
10 5 10 10 0 6 16 18 35 27 19 9 35 23 35 30 0 8 14 22 30 31 17 9 32 24 35
32 3 9 18 24 35 33 16 10 30 24 30 31 0 42 -14 73 -41 88 -16 10 -29 24 -29
32 0 8 -9 20 -20 26 -11 6 -27 24 -35 40 -9 17 -22 30 -30 30 -8 0 -23 17 -34
38 -10 20 -31 48 -45 61 -14 14 -26 29 -26 34 0 5 -12 21 -27 36 -16 14 -41
44 -58 65 -39 50 -55 66 -64 66 -3 0 -15 14 -24 30 -10 17 -24 30 -31 30 -7 0
-18 12 -25 26 -15 33 -46 75 -86 117 -16 18 -37 41 -45 53 -22 31 -156 184
-205 234 -14 14 -25 31 -25 38 0 7 -29 42 -65 77 -36 35 -65 70 -65 79 0 9 -4
16 -8 16 -14 0 -53 41 -47 50 3 5 -8 17 -25 26 -16 10 -30 23 -30 28 0 5 -15
24 -32 42 -68 67 -88 90 -88 99 0 6 -14 23 -31 39 -16 17 -32 40 -35 52 -9 33
-81 63 -102 42z m89 -188 c10 -6 19 -17 19 -25 0 -8 11 -17 25 -21 13 -3 27
-14 30 -25 4 -10 19 -28 36 -39 16 -12 29 -27 29 -34 0 -7 14 -25 30 -39 17
-15 30 -31 30 -35 0 -5 11 -14 24 -22 14 -7 27 -23 30 -36 3 -12 15 -25 25
-29 10 -3 25 -20 32 -38 7 -18 39 -59 71 -92 32 -32 58 -63 58 -68 0 -6 13
-24 30 -41 112 -116 140 -148 140 -159 1 -17 25 -47 39 -47 6 0 11 -3 11 -8 0
-8 68 -89 117 -137 18 -18 30 -35 27 -38 -3 -2 8 -14 25 -26 16 -12 33 -30 36
-41 4 -11 13 -20 21 -20 8 0 17 -8 20 -17 12 -38 28 -63 40 -63 7 0 15 -9 19
-19 3 -11 23 -37 43 -59 77 -81 102 -113 102 -127 0 -8 6 -15 14 -15 8 0 19
-14 25 -31 19 -56 17 -62 -46 -106 l-32 -23 -27 25 c-15 14 -32 25 -38 25 -6
0 -19 14 -28 30 -9 17 -24 30 -33 30 -9 0 -21 14 -26 30 -7 18 -18 30 -29 30
-11 0 -22 11 -28 28 -9 26 -36 58 -156 182 -18 19 -37 45 -40 57 -4 12 -17 23
-29 25 -15 2 -23 11 -25 28 -2 14 -10 30 -19 37 -9 7 -21 23 -27 35 -6 13 -22
24 -34 26 -13 2 -28 15 -35 30 -7 15 -22 35 -34 45 -12 10 -25 28 -29 40 -3
12 -16 31 -28 42 -12 11 -29 32 -39 48 -10 15 -24 27 -32 27 -8 0 -17 11 -21
24 -3 13 -16 29 -30 36 -13 8 -24 21 -24 30 0 9 -13 26 -30 38 -16 13 -30 28
-30 35 0 7 -13 21 -30 30 -20 13 -30 26 -30 43 0 14 -7 27 -17 31 -24 8 -53
44 -53 65 0 10 -10 20 -24 24 -15 3 -29 17 -35 35 -6 19 -17 29 -30 29 -13 0
-21 9 -26 30 -3 16 -15 32 -25 35 -25 8 -43 66 -35 115 7 41 18 55 50 63 32 8
35 8 56 -3z"/>
<path d="M2530 3497 c0 -15 -4 -27 -10 -27 -19 0 -10 -17 15 -28 14 -7 30 -23
35 -37 6 -15 17 -25 29 -25 12 0 23 -11 30 -30 5 -17 21 -34 35 -39 13 -6 28
-20 32 -33 3 -13 15 -32 26 -43 51 -53 88 -99 88 -108 0 -5 11 -20 24 -32 13
-12 31 -34 41 -48 9 -15 23 -27 30 -27 7 0 18 -13 23 -29 6 -18 20 -31 36 -35
19 -5 26 -13 26 -31 0 -23 29 -42 58 -37 7 2 12 -9 12 -30 0 -32 19 -58 51
-71 8 -3 9 -6 3 -6 -6 -1 6 -20 28 -43 21 -23 38 -44 38 -48 0 -4 11 -12 24
-18 14 -6 26 -22 29 -41 4 -21 15 -35 32 -41 13 -5 27 -20 30 -33 3 -12 16
-27 28 -32 12 -6 24 -21 25 -34 2 -13 12 -26 22 -28 11 -3 28 -20 39 -39 11
-19 27 -34 36 -34 9 0 15 -9 15 -24 0 -15 16 -39 44 -67 25 -23 43 -46 40 -50
-6 -10 61 -23 81 -15 24 9 17 30 -15 44 -19 9 -30 21 -30 34 0 12 -8 22 -20
25 -12 3 -27 18 -36 34 -13 26 -25 34 -46 30 -5 0 -8 2 -9 7 -3 35 -14 55 -49
93 -23 24 -51 57 -63 72 -12 15 -44 51 -71 79 -26 28 -53 64 -58 80 -7 20 -19
31 -39 35 -15 3 -28 8 -27 12 3 24 -4 41 -16 41 -8 0 -23 14 -33 30 -9 17 -25
33 -35 36 -10 3 -18 14 -18 25 0 12 -13 27 -30 37 -16 9 -35 31 -42 47 -14 35
-32 55 -48 55 -6 0 -13 14 -17 30 -4 20 -13 32 -28 36 -15 4 -25 15 -28 33 -5
22 -13 30 -36 34 -25 5 -31 11 -31 33 0 17 -6 28 -19 31 -11 3 -25 18 -31 34
-7 15 -21 31 -31 34 -10 4 -19 12 -19 19 0 6 -18 32 -39 56 -37 42 -53 58
-108 112 l-23 21 0 -26z"/>
<path d="M3925 2140 c-33 -16 -65 -30 -70 -30 -21 0 -165 -153 -186 -197 -46
-95 -36 -298 17 -352 13 -12 26 -33 30 -45 8 -25 44 -61 85 -81 16 -9 29 -22
29 -30 0 -13 56 -35 91 -35 9 0 23 -10 31 -21 11 -17 27 -22 84 -26 63 -5 72
-3 99 20 17 13 46 28 65 32 19 4 51 19 70 34 19 15 45 33 58 40 13 7 32 31 42
54 10 23 27 50 39 59 12 10 21 26 21 35 1 10 5 52 10 93 5 49 5 99 -3 146 -9
61 -15 74 -39 90 -15 11 -28 25 -28 32 0 18 -22 55 -44 71 -10 8 -26 23 -35
33 -9 11 -32 26 -51 34 -19 8 -57 26 -83 40 -31 16 -71 27 -110 29 -54 4 -70
1 -122 -25z m240 -104 c19 -8 35 -20 35 -25 0 -6 6 -11 13 -11 22 0 97 -86
103 -119 4 -17 10 -31 15 -31 17 0 39 -60 39 -105 0 -45 -22 -105 -39 -105 -5
0 -12 -17 -16 -37 -7 -36 -19 -52 -110 -133 -27 -24 -34 -25 -149 -25 -121 0
-121 0 -173 34 -29 19 -53 38 -53 43 0 5 -13 20 -29 33 -20 17 -30 37 -34 66
-3 23 -10 45 -14 48 -28 19 -38 96 -14 114 18 13 21 22 31 87 5 33 17 55 43
83 19 20 42 37 50 37 8 0 22 11 31 24 17 27 39 31 164 34 44 1 86 -4 107 -12z"/>
<path d="M3939 1972 c-91 -59 -99 -67 -105 -104 -8 -45 -42 -87 -55 -66 -5 8
-9 -14 -9 -55 0 -45 4 -66 10 -62 18 11 40 -15 51 -61 9 -34 17 -45 40 -53 16
-5 29 -14 29 -18 0 -18 68 -52 116 -58 65 -8 130 9 169 44 17 16 38 31 48 34
9 4 17 13 17 21 0 8 11 36 25 62 14 27 25 64 25 85 0 79 -99 210 -179 237 -50
18 -151 14 -182 -6z"/>
</g>
</svg>
