<svg xmlns="http://www.w3.org/2000/svg" width="25" height="27" fill="none"><g clip-path="url(#a)"><path fill="#FFA600" fill-rule="evenodd" d="M24.58 13.28c0 6.876-5.373 12.45-12 12.45s-12-5.574-12-12.45C.58 6.404 5.953.83 12.58.83s12 5.574 12 12.45ZM12.955 9.82c-1.165.513-3.492 1.575-6.981 3.186-.567.238-.864.472-.89.7-.046.386.41.538 1.03.745l.263.088c.61.21 1.433.457 1.86.467.388.009.82-.16 1.299-.508 3.26-2.332 4.943-3.51 5.049-3.535.074-.018.178-.041.248.025s.063.19.055.224c-.045.204-1.835 1.968-2.762 2.88-.29.285-.494.487-.536.533-.094.103-.19.2-.281.295-.568.58-.994 1.014.023 1.724.489.342.88.624 1.27.905.427.308.852.614 1.402.996.14.098.274.199.404.297.496.375.942.711 1.492.657.32-.03.65-.35.818-1.3.397-2.245 1.176-7.111 1.356-9.116a2.37 2.37 0 0 0-.02-.5.546.546 0 0 0-.17-.343c-.144-.123-.365-.15-.464-.147-.45.008-1.141.263-4.465 1.727Z" clip-rule="evenodd"/></g><defs><clipPath id="a"><path fill="#fff" d="M.58.08h24v26h-24z"/></clipPath></defs></svg>