<svg xmlns="http://www.w3.org/2000/svg" width="25" height="25" fill="none"><g fill="#FFA600" clip-path="url(#a)"><path fill-rule="evenodd" d="M12.58.08c-6.627 0-12 5.373-12 12s5.373 12 12 12 12-5.372 12-12c0-6.627-5.373-12-12-12Zm5 7.875c.552.15.985.596 1.133 1.162.267 1.025.267 3.163.267 3.163s0 2.139-.268 3.164a1.625 1.625 0 0 1-1.131 1.161c-.998.275-5.001.275-5.001.275s-4.003 0-5-.274a1.625 1.625 0 0 1-1.133-1.163C6.18 14.42 6.18 12.28 6.18 12.28s0-2.138.267-3.163c.148-.566.581-1.011 1.132-1.162.998-.275 5.001-.275 5.001-.275s4.003 0 5 .275Z" clip-rule="evenodd"/><path d="M11.38 14.48v-4l3.2 2-3.2 2Z"/></g><defs><clipPath id="a"><path fill="#fff" d="M.58.08h24v24h-24z"/></clipPath></defs></svg>